# xmcd
#
# Track frame offsets: 
#        180
#        21227
#        36712
#        62727
#        83669
#        101607
#        117601
#        141129
#        159876
#        175086
#        193293
#        213068
#
# Disc length: 4022 seconds
#
# Revision: 1
# Processed by: cddbd v1.5.2PL0 Copyright (c) Steve Scherf et al.
# Submitted via: ExactAudioCopy v1.0b3
#
DISCID=a60fb40c
DTITLE=Cootie Stark - Sugar Man
DYEAR=1999
DGENRE=Blues
TTITLE0=Metal Bottoms
TTITLE1=Someday Baby
TTITLE2=Jigroo
TTITLE3=Padlock Blues
TTITLE4=Lonely Blues
TTITLE5=Cut Down That Old Pine Tree
TTITLE6=Howlin' Wolf
TTITLE7=Leaving Here, Sure Don't Want to Go
TTITLE8=Send You Back to Georgia
TTITLE9=Sandyland
TTITLE10=Blue Smokey Mountain
TTITLE11=Were You There When They Crucified My Lord?
EXTD=
EXTT0=
EXTT1=
EXTT2=
EXTT3=
EXTT4=
EXTT5=
EXTT6=
EXTT7=
EXTT8=
EXTT9=
EXTT10=
EXTT11=
PLAYORDER=
